<svg xmlns="http://www.w3.org/2000/svg" viewBox="2450 0 5100 10000"><linearGradient id="gr1" gradientTransform="rotate(90)"><stop stop-color="#0052cf" offset="55%"></stop><stop stop-color="#0088e9" offset="90%"></stop></linearGradient><linearGradient id="gr2" gradientTransform="rotate(70.3434)"><stop stop-color="#0052cf" offset="50%"></stop><stop stop-color="#0088e9" offset="90%"></stop></linearGradient><g transform="translate(4962, 5591)"><polygon points="-495,-4342 -483,-2600 676,-1357 -795,838 -1551,-35 -1674,-1560" fill="#0088e9"></polygon><polygon points="-495,-4342 -185,-3159 1394,-1124 1674,565 676,-1357 -483,-2600" fill="#003384"></polygon><polygon points="817,-1380 1674,565 358,4342 -235,3683 -795,838 676,-1357" fill="url('#gr1')"></polygon><polygon points="-495,-4342 -382,-2630 817,-1380 -795,838 534,-1334 -585,-2570" fill="#fff"></polygon><animateMotion dur="10s" path="M 0 0 c 14.726 3.145 31.984 8.218 50.989 15.135 c 56.382 20.521 90.549 43.599 85.419 57.694 c -5.13 14.095 -46.138 9.812 -102.52 -10.71 c -56.382 -20.521 -90.549 -43.599 -85.419 -57.694 c 3.401 -9.344 22.569 -10.611 51.531 -4.425" repeatCount="indefinite" calcMode="spline" keyTimes="0;0.05;0.3;0.55;0.8;1" keyPoints="0;0.123;0.373;0.623;0.873;1" keySplines="0.633 0.575 1 1;0 0 0.46 0.93;0.54 0.07 1 1;0 0 0.46 0.93;0.417 0.062 0.794 0.626" additive="sum"></animateMotion><animateTransform attributeName="transform" type="rotate" dur="10s" values="0;-0.601;-1.601;-0.601;0.399;0" repeatCount="indefinite" calcMode="spline" keyTimes="0;0.1;0.35;0.6;0.85;1" keySplines="0.601 0.458 1 1;0 0 0.46 0.93;0.54 0.07 1 1;0 0 0.46 0.93;0.369 0.073 0.716 0.506" additive="sum"></animateTransform></g><g transform="translate(6114.5, 2333.5)"><polygon points="-864.5,-2163.5 -401.5,-1066.5 -714.5,-244.5" fill="#0088e9"></polygon><polygon points="-864.5,-2163.5 401.5,-1104.5 403.5,-331.5 864.5,1197.5 680.5,2163.5 -714.5,-244.5 -401.5,-1066.5" fill="url('#gr2')"></polygon><polygon points="401.5,-1104.5 864.5,1197.5 -55.5,-1087.5" fill="#003384"></polygon><polygon points="-864.5,-2163.5 -345.5,-1061.5 -714.5,-244.5 -458.5,-1071.5" fill="#fff"></polygon><animateMotion dur="10s" path="M 0 0 c 21.943 19.481 34.413 31.967 33.135 33.49 c -1.928 2.298 -33.856 -21.881 -79.818 -60.449 c -45.963 -38.567 -75.319 -65.811 -73.391 -68.109 c 1.928 -2.298 33.856 21.881 79.818 60.449 c 15.493 13 29.099 24.713 40.256 34.619" repeatCount="indefinite" calcMode="spline" keyTimes="0;0.2;0.45;0.7;0.95;1" keyPoints="0;0.118;0.368;0.618;0.868;1" keySplines="0.206 0.374 0.583 0.938;0.54 0.07 1 1;0 0 0.46 0.93;0.54 0.07 1 1;0 0 0.367 0.425" additive="sum"></animateMotion><animateTransform attributeName="transform" type="rotate" dur="10s" values="0;-1.5;0;1.5;0" repeatCount="indefinite" calcMode="spline" keyTimes="0;0.25;0.5;0.75;1" keySplines="0 0 0.46 0.93;0.54 0.07 1 1;0 0 0.46 0.93;0.54 0.07 1 1" additive="sum"></animateTransform></g><g transform="translate(3564, 7943)"><polygon points="-956,-1774 -18,-491 -273,195" fill="#0088e9"></polygon><polygon points="-956,-1774 393,-555 956,1774 -273,195 -18,-491" fill="#0052cf"></polygon><polygon points="-956,-1774 57,-478 -273,195 -93,-505" fill="#fff"></polygon><animateMotion dur="10s" path="M 0 0 c 0 9 -20 15 -50 15 c -30 0 -50 -6 -50 -15 c 0 -9 20 -15 50 -15 c 30 0 50 6 50 15" repeatCount="indefinite" calcMode="spline" keyTimes="0;0.25;0.5;0.75;1" keyPoints="0;0.25;0.5;0.75;1" keySplines="0.54 0.07 1 1;0 0 0.46 0.93;0.54 0.07 1 1;0 0 0.46 0.93" additive="sum"></animateMotion><animateTransform attributeName="transform" type="rotate" dur="10s" values="0;-0.601;-1.601;-0.601;0.399;0" repeatCount="indefinite" calcMode="spline" keyTimes="0;0.1;0.35;0.6;0.85;1" keySplines="0.601 0.458 1 1;0 0 0.46 0.93;0.54 0.07 1 1;0 0 0.46 0.93;0.369 0.073 0.716 0.506" additive="sum"></animateTransform></g><g transform="translate(6304, 8659.5)"><polygon points="535,-1054.5 511,217.5 -535,1054.5" fill="#0052cf"></polygon><animateMotion dur="10s" path="M 0 0 c 10.731 -8.529 37.866 -10.26 73.364 -4.001 c 44.316 7.814 72.124 22.872 69.519 37.644 c -2.605 14.772 -33.885 19.411 -78.202 11.597 c -44.316 -7.814 -72.124 -22.872 -69.519 -37.644 c 0.518 -2.939 2.172 -5.477 4.838 -7.596" repeatCount="indefinite" calcMode="spline" keyTimes="0;0.15;0.4;0.65;0.9;1" keyPoints="0;0.223;0.473;0.723;0.973;1" keySplines="0.572 0.314 1 1;0 0 0.46 0.93;0.54 0.07 1 1;0 0 0.46 0.93;0.347 0.107 0.683 0.477" additive="sum"></animateMotion><animateTransform attributeName="transform" type="rotate" dur="10s" values="0;-1.404;-2.904;-1.404;0.096;0" repeatCount="indefinite" calcMode="spline" keyTimes="0;0.2;0.45;0.7;0.95;1" keySplines="0.551 0.166 1 1;0 0 0.46 0.93;0.54 0.07 1 1;0 0 0.46 0.93;0.337 0.19 0.671 0.53" additive="sum"></animateTransform></g></svg>